# xmcd CD database file
#
# Track frame offsets:
#	187
#	18590
#	41387
#	67782
#	84720
#	99697
#	126000
#	144157
#	171960
#	193042
#
# Disc length: 2821 seconds
#
# Revision: 0
# Processed by: cddbd v1.5PL3 Copyright (c) Steve Scherf et al.
# Submitted via: CDex 1.50beta10
#
DISCID=7f0b030a
DTITLE=泉谷しげる - WILD BLOOD
DYEAR=1900
DGENRE=Rock
TTITLE0=クレイジーラブ
TTITLE1=責任者を探せ
TTITLE2=夜と昼の顔
TTITLE3=陽のあたる場所
TTITLE4=他人に厳しく自分に甘く
TTITLE5=楽園の人々
TTITLE6=月のない夜
TTITLE7=WILD BLOOD
TTITLE8=クラスブルジョア
TTITLE9=HAT
EXTD=
EXTT0=
EXTT1=
EXTT2=
EXTT3=
EXTT4=
EXTT5=
EXTT6=
EXTT7=
EXTT8=
EXTT9=
PLAYORDER=
